<?xml version="1.0" encoding="utf-8" ?>
<svg baseProfile="full" height="300" version="1.1" width="300" xmlns="http://www.w3.org/2000/svg" xmlns:ev="http://www.w3.org/2001/xml-events" xmlns:xlink="http://www.w3.org/1999/xlink"><defs /><path d="M 124,84 L 122,92 L 117,102 L 114,106 L 106,114 L 102,117 L 92,122 L 84,124 L 66,124 L 58,122 L 48,117 L 44,114 L 36,106 L 33,102 L 28,92 L 26,84 L 26,66 L 28,58 L 33,48 L 36,44 L 44,36 L 48,33 L 58,28 L 66,26 L 84,26 L 92,28 L 102,33 L 106,36 L 114,44 L 117,48 L 122,58 L 124,66 Z" fill="rgb(255, 0, 0)" fill-opacity="1.0" /><path d="M 298,151 L 249,209 L 150,299 L 2,151 L 150,150 L 249,150 Z" fill="rgb(0, 126, 1)" fill-opacity="1.0" /></svg>