<?xml version="1.0" encoding="utf-8" ?>
<svg baseProfile="full" height="300" version="1.1" width="300" xmlns="http://www.w3.org/2000/svg" xmlns:ev="http://www.w3.org/2001/xml-events" xmlns:xlink="http://www.w3.org/1999/xlink"><defs /><path d="M 124,84 L 122,92 L 117,102 L 114,106 L 106,114 L 102,117 L 92,122 L 84,124 L 66,124 L 58,122 L 48,117 L 44,114 L 36,106 L 33,102 L 28,92 L 26,84 L 26,66 L 28,58 L 33,48 L 36,44 L 44,36 L 48,33 L 58,28 L 66,26 L 84,26 L 92,28 L 102,33 L 106,36 L 114,44 L 117,48 L 122,58 L 124,66 Z" fill="rgb(255, 0, 0)" fill-opacity="1.0" /><path d="M 249,209 L 241,209 L 150,150 L 249,150 Z" fill="rgb(0, 0, 255)" fill-opacity="1.0" /><path d="M 4,153 L 4,151 Z" fill="rgb(0, 3, 0)" fill-opacity="1.0" /><path d="M 5,154 L 5,151 Z" fill="rgb(0, 4, 0)" fill-opacity="1.0" /><path d="M 7,156 L 6,155 L 6,151 L 7,151 Z" fill="rgb(0, 5, 0)" fill-opacity="1.0" /><path d="M 8,157 L 8,151 Z" fill="rgb(0, 6, 0)" fill-opacity="1.0" /><path d="M 9,158 L 9,151 Z" fill="rgb(0, 7, 0)" fill-opacity="1.0" /><path d="M 10,159 L 10,151 Z" fill="rgb(0, 8, 0)" fill-opacity="1.0" /><path d="M 11,160 L 11,151 Z" fill="rgb(0, 9, 0)" fill-opacity="1.0" /><path d="M 12,161 L 12,151 Z" fill="rgb(0, 10, 0)" fill-opacity="1.0" /><path d="M 14,163 L 13,162 L 13,151 L 14,151 Z" fill="rgb(0, 11, 0)" fill-opacity="1.0" /><path d="M 15,164 L 15,151 Z" fill="rgb(0, 12, 0)" fill-opacity="1.0" /><path d="M 16,165 L 16,151 Z" fill="rgb(0, 13, 0)" fill-opacity="1.0" /><path d="M 17,166 L 17,151 Z" fill="rgb(0, 14, 0)" fill-opacity="1.0" /><path d="M 18,167 L 18,151 Z" fill="rgb(0, 15, 0)" fill-opacity="1.0" /><path d="M 19,168 L 19,151 Z" fill="rgb(0, 16, 0)" fill-opacity="1.0" /><path d="M 21,170 L 20,169 L 20,151 L 21,151 Z" fill="rgb(0, 17, 0)" fill-opacity="1.0" /><path d="M 22,171 L 22,151 Z" fill="rgb(0, 18, 0)" fill-opacity="1.0" /><path d="M 23,172 L 23,151 Z" fill="rgb(0, 19, 0)" fill-opacity="1.0" /><path d="M 24,173 L 24,151 Z" fill="rgb(0, 20, 0)" fill-opacity="1.0" /><path d="M 25,174 L 25,151 Z" fill="rgb(0, 21, 0)" fill-opacity="1.0" /><path d="M 27,176 L 26,175 L 26,151 L 27,151 Z" fill="rgb(0, 22, 0)" fill-opacity="1.0" /><path d="M 28,177 L 28,151 Z" fill="rgb(0, 23, 0)" fill-opacity="1.0" /><path d="M 29,178 L 29,151 Z" fill="rgb(0, 24, 0)" fill-opacity="1.0" /><path d="M 30,179 L 30,151 Z" fill="rgb(0, 25, 0)" fill-opacity="1.0" /><path d="M 31,180 L 31,151 Z" fill="rgb(0, 26, 0)" fill-opacity="1.0" /><path d="M 32,181 L 32,151 Z" fill="rgb(0, 27, 0)" fill-opacity="1.0" /><path d="M 34,183 L 33,182 L 33,151 L 34,151 Z" fill="rgb(0, 28, 0)" fill-opacity="1.0" /><path d="M 35,184 L 35,151 Z" fill="rgb(0, 29, 0)" fill-opacity="1.0" /><path d="M 36,185 L 36,151 Z" fill="rgb(0, 30, 0)" fill-opacity="1.0" /><path d="M 37,186 L 37,151 Z" fill="rgb(0, 31, 0)" fill-opacity="1.0" /><path d="M 38,187 L 38,151 Z" fill="rgb(0, 32, 0)" fill-opacity="1.0" /><path d="M 39,188 L 39,151 Z" fill="rgb(0, 33, 0)" fill-opacity="1.0" /><path d="M 41,190 L 40,189 L 40,151 L 41,151 Z" fill="rgb(0, 34, 0)" fill-opacity="1.0" /><path d="M 42,191 L 42,151 Z" fill="rgb(0, 35, 0)" fill-opacity="1.0" /><path d="M 43,192 L 43,151 Z" fill="rgb(0, 36, 0)" fill-opacity="1.0" /><path d="M 44,193 L 44,151 Z" fill="rgb(0, 37, 0)" fill-opacity="1.0" /><path d="M 45,194 L 45,151 Z" fill="rgb(0, 38, 0)" fill-opacity="1.0" /><path d="M 47,196 L 46,195 L 46,151 L 47,151 Z" fill="rgb(0, 39, 0)" fill-opacity="1.0" /><path d="M 48,197 L 48,151 Z" fill="rgb(0, 40, 0)" fill-opacity="1.0" /><path d="M 49,198 L 49,151 Z" fill="rgb(0, 41, 0)" fill-opacity="1.0" /><path d="M 50,199 L 50,151 Z" fill="rgb(0, 42, 0)" fill-opacity="1.0" /><path d="M 51,200 L 51,151 Z" fill="rgb(0, 43, 0)" fill-opacity="1.0" /><path d="M 52,201 L 52,151 Z" fill="rgb(0, 44, 0)" fill-opacity="1.0" /><path d="M 54,203 L 53,202 L 53,151 L 54,151 Z" fill="rgb(0, 45, 0)" fill-opacity="1.0" /><path d="M 55,204 L 55,151 Z" fill="rgb(0, 46, 0)" fill-opacity="1.0" /><path d="M 56,205 L 56,151 Z" fill="rgb(0, 47, 0)" fill-opacity="1.0" /><path d="M 57,206 L 57,151 Z" fill="rgb(0, 48, 0)" fill-opacity="1.0" /><path d="M 58,207 L 58,151 Z" fill="rgb(0, 49, 0)" fill-opacity="1.0" /><path d="M 59,208 L 59,151 Z" fill="rgb(0, 50, 0)" fill-opacity="1.0" /><path d="M 61,210 L 60,209 L 60,151 L 61,151 Z" fill="rgb(0, 51, 0)" fill-opacity="1.0" /><path d="M 62,211 L 62,151 Z" fill="rgb(0, 52, 0)" fill-opacity="1.0" /><path d="M 63,212 L 63,151 Z" fill="rgb(0, 53, 0)" fill-opacity="1.0" /><path d="M 64,213 L 64,151 Z" fill="rgb(0, 54, 0)" fill-opacity="1.0" /><path d="M 65,214 L 65,151 Z" fill="rgb(0, 55, 0)" fill-opacity="1.0" /><path d="M 67,216 L 66,215 L 66,151 L 67,151 Z" fill="rgb(0, 56, 0)" fill-opacity="1.0" /><path d="M 68,217 L 68,151 Z" fill="rgb(0, 57, 0)" fill-opacity="1.0" /><path d="M 69,218 L 69,151 Z" fill="rgb(0, 58, 0)" fill-opacity="1.0" /><path d="M 70,219 L 70,151 Z" fill="rgb(0, 59, 0)" fill-opacity="1.0" /><path d="M 71,220 L 71,151 Z" fill="rgb(0, 60, 0)" fill-opacity="1.0" /><path d="M 72,221 L 72,151 Z" fill="rgb(0, 61, 0)" fill-opacity="1.0" /><path d="M 74,223 L 73,222 L 73,151 L 74,151 Z" fill="rgb(0, 62, 0)" fill-opacity="1.0" /><path d="M 75,224 L 75,151 Z" fill="rgb(0, 63, 0)" fill-opacity="1.0" /><path d="M 76,225 L 76,151 Z" fill="rgb(0, 64, 0)" fill-opacity="1.0" /><path d="M 77,226 L 77,151 Z" fill="rgb(0, 65, 0)" fill-opacity="1.0" /><path d="M 78,227 L 78,151 Z" fill="rgb(0, 66, 0)" fill-opacity="1.0" /><path d="M 79,228 L 79,151 Z" fill="rgb(0, 67, 0)" fill-opacity="1.0" /><path d="M 81,230 L 80,229 L 80,151 L 81,151 Z" fill="rgb(0, 68, 0)" fill-opacity="1.0" /><path d="M 82,231 L 82,151 Z" fill="rgb(0, 69, 0)" fill-opacity="1.0" /><path d="M 83,232 L 83,151 Z" fill="rgb(0, 70, 0)" fill-opacity="1.0" /><path d="M 84,233 L 84,151 Z" fill="rgb(0, 71, 0)" fill-opacity="1.0" /><path d="M 85,234 L 85,151 Z" fill="rgb(0, 72, 0)" fill-opacity="1.0" /><path d="M 87,236 L 86,235 L 86,151 L 87,151 Z" fill="rgb(0, 73, 0)" fill-opacity="1.0" /><path d="M 88,237 L 88,151 Z" fill="rgb(0, 74, 0)" fill-opacity="1.0" /><path d="M 89,238 L 89,151 Z" fill="rgb(0, 75, 0)" fill-opacity="1.0" /><path d="M 90,239 L 90,151 Z" fill="rgb(0, 76, 0)" fill-opacity="1.0" /><path d="M 91,240 L 91,151 Z" fill="rgb(0, 77, 0)" fill-opacity="1.0" /><path d="M 92,241 L 92,151 Z" fill="rgb(0, 78, 0)" fill-opacity="1.0" /><path d="M 94,243 L 93,242 L 93,151 L 94,151 Z" fill="rgb(0, 79, 0)" fill-opacity="1.0" /><path d="M 95,244 L 95,151 Z" fill="rgb(0, 80, 0)" fill-opacity="1.0" /><path d="M 96,245 L 96,151 Z" fill="rgb(0, 81, 0)" fill-opacity="1.0" /><path d="M 97,246 L 97,151 Z" fill="rgb(0, 82, 0)" fill-opacity="1.0" /><path d="M 98,247 L 98,151 Z" fill="rgb(0, 83, 0)" fill-opacity="1.0" /><path d="M 99,248 L 99,151 Z" fill="rgb(0, 84, 0)" fill-opacity="1.0" /><path d="M 101,250 L 100,249 L 100,151 L 101,151 Z" fill="rgb(0, 85, 0)" fill-opacity="1.0" /><path d="M 102,251 L 102,151 Z" fill="rgb(0, 86, 0)" fill-opacity="1.0" /><path d="M 103,252 L 103,151 Z" fill="rgb(0, 87, 0)" fill-opacity="1.0" /><path d="M 104,253 L 104,151 Z" fill="rgb(0, 88, 0)" fill-opacity="1.0" /><path d="M 105,254 L 105,151 Z" fill="rgb(0, 89, 0)" fill-opacity="1.0" /><path d="M 107,256 L 106,255 L 106,151 L 107,151 Z" fill="rgb(0, 90, 0)" fill-opacity="1.0" /><path d="M 108,257 L 108,151 Z" fill="rgb(0, 91, 0)" fill-opacity="1.0" /><path d="M 109,258 L 109,151 Z" fill="rgb(0, 92, 0)" fill-opacity="1.0" /><path d="M 110,259 L 110,151 Z" fill="rgb(0, 93, 0)" fill-opacity="1.0" /><path d="M 111,260 L 111,151 Z" fill="rgb(0, 94, 0)" fill-opacity="1.0" /><path d="M 112,261 L 112,151 Z" fill="rgb(0, 95, 0)" fill-opacity="1.0" /><path d="M 114,263 L 113,262 L 113,151 L 114,151 Z" fill="rgb(0, 96, 0)" fill-opacity="1.0" /><path d="M 115,264 L 115,151 Z" fill="rgb(0, 97, 0)" fill-opacity="1.0" /><path d="M 116,265 L 116,151 Z" fill="rgb(0, 98, 0)" fill-opacity="1.0" /><path d="M 117,266 L 117,151 Z" fill="rgb(0, 99, 0)" fill-opacity="1.0" /><path d="M 118,267 L 118,151 Z" fill="rgb(0, 100, 0)" fill-opacity="1.0" /><path d="M 119,268 L 119,151 Z" fill="rgb(0, 101, 0)" fill-opacity="1.0" /><path d="M 121,270 L 120,269 L 120,151 L 121,151 Z" fill="rgb(0, 102, 0)" fill-opacity="1.0" /><path d="M 122,271 L 122,151 Z" fill="rgb(0, 103, 0)" fill-opacity="1.0" /><path d="M 123,272 L 123,151 Z" fill="rgb(0, 104, 0)" fill-opacity="1.0" /><path d="M 124,273 L 124,151 Z" fill="rgb(0, 105, 0)" fill-opacity="1.0" /><path d="M 125,274 L 125,151 Z" fill="rgb(0, 106, 0)" fill-opacity="1.0" /><path d="M 127,276 L 126,275 L 126,151 L 127,151 Z" fill="rgb(0, 107, 0)" fill-opacity="1.0" /><path d="M 128,277 L 128,151 Z" fill="rgb(0, 108, 0)" fill-opacity="1.0" /><path d="M 129,278 L 129,151 Z" fill="rgb(0, 109, 0)" fill-opacity="1.0" /><path d="M 130,279 L 130,151 Z" fill="rgb(0, 110, 0)" fill-opacity="1.0" /><path d="M 131,280 L 131,151 Z" fill="rgb(0, 111, 0)" fill-opacity="1.0" /><path d="M 132,281 L 132,151 Z" fill="rgb(0, 112, 0)" fill-opacity="1.0" /><path d="M 134,283 L 133,282 L 133,151 L 134,151 Z" fill="rgb(0, 113, 0)" fill-opacity="1.0" /><path d="M 135,284 L 135,151 Z" fill="rgb(0, 114, 0)" fill-opacity="1.0" /><path d="M 136,285 L 136,151 Z" fill="rgb(0, 115, 0)" fill-opacity="1.0" /><path d="M 137,286 L 137,151 Z" fill="rgb(0, 116, 0)" fill-opacity="1.0" /><path d="M 138,287 L 138,151 Z" fill="rgb(0, 117, 0)" fill-opacity="1.0" /><path d="M 139,288 L 139,151 Z" fill="rgb(0, 118, 0)" fill-opacity="1.0" /><path d="M 141,290 L 140,289 L 140,151 L 141,151 Z" fill="rgb(0, 119, 0)" fill-opacity="1.0" /><path d="M 142,291 L 142,151 Z" fill="rgb(0, 120, 0)" fill-opacity="1.0" /><path d="M 143,292 L 143,151 Z" fill="rgb(0, 121, 0)" fill-opacity="1.0" /><path d="M 144,293 L 144,151 Z" fill="rgb(0, 122, 0)" fill-opacity="1.0" /><path d="M 145,294 L 145,151 Z" fill="rgb(0, 123, 0)" fill-opacity="1.0" /><path d="M 147,296 L 146,295 L 146,151 L 147,151 Z" fill="rgb(0, 124, 0)" fill-opacity="1.0" /><path d="M 148,297 L 148,151 Z" fill="rgb(0, 125, 0)" fill-opacity="1.0" /><path d="M 149,298 L 149,151 Z" fill="rgb(0, 126, 0)" fill-opacity="1.0" /><path d="M 150,299 L 150,151 Z" fill="rgb(0, 127, 0)" fill-opacity="1.0" /><path d="M 151,298 L 151,151 Z" fill="rgb(0, 128, 0)" fill-opacity="1.0" /><path d="M 152,297 L 152,151 Z" fill="rgb(0, 129, 0)" fill-opacity="1.0" /><path d="M 153,151 L 154,151 L 154,295 L 153,296 Z" fill="rgb(0, 130, 0)" fill-opacity="1.0" /><path d="M 155,294 L 155,151 Z" fill="rgb(0, 131, 0)" fill-opacity="1.0" /><path d="M 156,293 L 156,151 Z" fill="rgb(0, 132, 0)" fill-opacity="1.0" /><path d="M 157,292 L 157,151 Z" fill="rgb(0, 133, 0)" fill-opacity="1.0" /><path d="M 158,291 L 158,151 Z" fill="rgb(0, 134, 0)" fill-opacity="1.0" /><path d="M 159,290 L 159,151 Z" fill="rgb(0, 135, 0)" fill-opacity="1.0" /><path d="M 160,151 L 161,151 L 161,288 L 160,289 Z" fill="rgb(0, 136, 0)" fill-opacity="1.0" /><path d="M 162,287 L 162,151 Z" fill="rgb(0, 137, 0)" fill-opacity="1.0" /><path d="M 163,286 L 163,151 Z" fill="rgb(0, 138, 0)" fill-opacity="1.0" /><path d="M 164,285 L 164,151 Z" fill="rgb(0, 139, 0)" fill-opacity="1.0" /><path d="M 165,284 L 165,151 Z" fill="rgb(0, 140, 0)" fill-opacity="1.0" /><path d="M 166,151 L 167,151 L 167,282 L 166,283 Z" fill="rgb(0, 141, 0)" fill-opacity="1.0" /><path d="M 168,281 L 168,151 Z" fill="rgb(0, 142, 0)" fill-opacity="1.0" /><path d="M 169,280 L 169,151 Z" fill="rgb(0, 143, 0)" fill-opacity="1.0" /><path d="M 170,279 L 170,151 Z" fill="rgb(0, 144, 0)" fill-opacity="1.0" /><path d="M 171,278 L 171,151 Z" fill="rgb(0, 145, 0)" fill-opacity="1.0" /><path d="M 172,277 L 172,151 Z" fill="rgb(0, 146, 0)" fill-opacity="1.0" /><path d="M 173,151 L 174,151 L 174,275 L 173,276 Z" fill="rgb(0, 147, 0)" fill-opacity="1.0" /><path d="M 175,274 L 175,151 Z" fill="rgb(0, 148, 0)" fill-opacity="1.0" /><path d="M 176,273 L 176,151 Z" fill="rgb(0, 149, 0)" fill-opacity="1.0" /><path d="M 177,272 L 177,151 Z" fill="rgb(0, 150, 0)" fill-opacity="1.0" /><path d="M 178,271 L 178,151 Z" fill="rgb(0, 151, 0)" fill-opacity="1.0" /><path d="M 179,270 L 179,151 Z" fill="rgb(0, 152, 0)" fill-opacity="1.0" /><path d="M 180,151 L 181,151 L 181,268 L 180,269 Z" fill="rgb(0, 153, 0)" fill-opacity="1.0" /><path d="M 182,267 L 182,151 Z" fill="rgb(0, 154, 0)" fill-opacity="1.0" /><path d="M 183,266 L 183,151 Z" fill="rgb(0, 155, 0)" fill-opacity="1.0" /><path d="M 184,265 L 184,151 Z" fill="rgb(0, 156, 0)" fill-opacity="1.0" /><path d="M 185,264 L 185,151 Z" fill="rgb(0, 157, 0)" fill-opacity="1.0" /><path d="M 186,151 L 187,151 L 187,262 L 186,263 Z" fill="rgb(0, 158, 0)" fill-opacity="1.0" /><path d="M 188,261 L 188,151 Z" fill="rgb(0, 159, 0)" fill-opacity="1.0" /><path d="M 189,260 L 189,151 Z" fill="rgb(0, 160, 0)" fill-opacity="1.0" /><path d="M 190,259 L 190,151 Z" fill="rgb(0, 161, 0)" fill-opacity="1.0" /><path d="M 191,258 L 191,151 Z" fill="rgb(0, 162, 0)" fill-opacity="1.0" /><path d="M 192,257 L 192,151 Z" fill="rgb(0, 163, 0)" fill-opacity="1.0" /><path d="M 193,151 L 194,151 L 194,255 L 193,256 Z" fill="rgb(0, 164, 0)" fill-opacity="1.0" /><path d="M 195,254 L 195,151 Z" fill="rgb(0, 165, 0)" fill-opacity="1.0" /><path d="M 196,253 L 196,151 Z" fill="rgb(0, 166, 0)" fill-opacity="1.0" /><path d="M 197,252 L 197,151 Z" fill="rgb(0, 167, 0)" fill-opacity="1.0" /><path d="M 198,251 L 198,151 Z" fill="rgb(0, 168, 0)" fill-opacity="1.0" /><path d="M 199,250 L 199,151 Z" fill="rgb(0, 169, 0)" fill-opacity="1.0" /><path d="M 200,151 L 201,151 L 201,248 L 200,249 Z" fill="rgb(0, 170, 0)" fill-opacity="1.0" /><path d="M 202,247 L 202,151 Z" fill="rgb(0, 171, 0)" fill-opacity="1.0" /><path d="M 203,246 L 203,151 Z" fill="rgb(0, 172, 0)" fill-opacity="1.0" /><path d="M 204,245 L 204,151 Z" fill="rgb(0, 173, 0)" fill-opacity="1.0" /><path d="M 205,244 L 205,151 Z" fill="rgb(0, 174, 0)" fill-opacity="1.0" /><path d="M 206,151 L 207,151 L 207,242 L 206,243 Z" fill="rgb(0, 175, 0)" fill-opacity="1.0" /><path d="M 208,241 L 208,151 Z" fill="rgb(0, 176, 0)" fill-opacity="1.0" /><path d="M 209,240 L 209,151 Z" fill="rgb(0, 177, 0)" fill-opacity="1.0" /><path d="M 210,239 L 210,151 Z" fill="rgb(0, 178, 0)" fill-opacity="1.0" /><path d="M 211,238 L 211,151 Z" fill="rgb(0, 179, 0)" fill-opacity="1.0" /><path d="M 212,237 L 212,151 Z" fill="rgb(0, 180, 0)" fill-opacity="1.0" /><path d="M 213,151 L 214,151 L 214,235 L 213,236 Z" fill="rgb(0, 181, 0)" fill-opacity="1.0" /><path d="M 215,234 L 215,151 Z" fill="rgb(0, 182, 0)" fill-opacity="1.0" /><path d="M 216,233 L 216,151 Z" fill="rgb(0, 183, 0)" fill-opacity="1.0" /><path d="M 217,232 L 217,151 Z" fill="rgb(0, 184, 0)" fill-opacity="1.0" /><path d="M 218,231 L 218,151 Z" fill="rgb(0, 185, 0)" fill-opacity="1.0" /><path d="M 219,230 L 219,151 Z" fill="rgb(0, 186, 0)" fill-opacity="1.0" /><path d="M 220,151 L 221,151 L 221,228 L 220,229 Z" fill="rgb(0, 187, 0)" fill-opacity="1.0" /><path d="M 222,227 L 222,151 Z" fill="rgb(0, 188, 0)" fill-opacity="1.0" /><path d="M 223,226 L 223,151 Z" fill="rgb(0, 189, 0)" fill-opacity="1.0" /><path d="M 224,225 L 224,151 Z" fill="rgb(0, 190, 0)" fill-opacity="1.0" /><path d="M 225,224 L 225,151 Z" fill="rgb(0, 191, 0)" fill-opacity="1.0" /><path d="M 226,151 L 227,151 L 227,222 L 226,223 Z" fill="rgb(0, 192, 0)" fill-opacity="1.0" /><path d="M 228,221 L 228,151 Z" fill="rgb(0, 193, 0)" fill-opacity="1.0" /><path d="M 229,220 L 229,151 Z" fill="rgb(0, 194, 0)" fill-opacity="1.0" /><path d="M 230,219 L 230,151 Z" fill="rgb(0, 195, 0)" fill-opacity="1.0" /><path d="M 231,218 L 231,151 Z" fill="rgb(0, 196, 0)" fill-opacity="1.0" /><path d="M 232,217 L 232,151 Z" fill="rgb(0, 197, 0)" fill-opacity="1.0" /><path d="M 233,151 L 234,151 L 234,215 L 233,216 Z" fill="rgb(0, 198, 0)" fill-opacity="1.0" /><path d="M 235,214 L 235,151 Z" fill="rgb(0, 199, 0)" fill-opacity="1.0" /><path d="M 236,213 L 236,151 Z" fill="rgb(0, 200, 0)" fill-opacity="1.0" /><path d="M 237,212 L 237,151 Z" fill="rgb(0, 201, 0)" fill-opacity="1.0" /><path d="M 238,211 L 238,151 Z" fill="rgb(0, 202, 0)" fill-opacity="1.0" /><path d="M 239,210 L 239,151 Z" fill="rgb(0, 203, 0)" fill-opacity="1.0" /><path d="M 240,151 L 241,151 L 241,208 L 240,209 Z" fill="rgb(0, 204, 0)" fill-opacity="1.0" /><path d="M 242,207 L 242,151 Z" fill="rgb(0, 205, 0)" fill-opacity="1.0" /><path d="M 243,206 L 243,151 Z" fill="rgb(0, 206, 0)" fill-opacity="1.0" /><path d="M 244,205 L 244,151 Z" fill="rgb(0, 207, 0)" fill-opacity="1.0" /><path d="M 245,204 L 245,151 Z" fill="rgb(0, 208, 0)" fill-opacity="1.0" /><path d="M 246,151 L 247,151 L 247,202 L 246,203 Z" fill="rgb(0, 209, 0)" fill-opacity="1.0" /><path d="M 248,201 L 248,151 Z" fill="rgb(0, 210, 0)" fill-opacity="1.0" /><path d="M 249,200 L 249,151 Z" fill="rgb(0, 211, 0)" fill-opacity="1.0" /><path d="M 250,199 L 250,151 Z" fill="rgb(0, 212, 0)" fill-opacity="1.0" /><path d="M 251,198 L 251,151 Z" fill="rgb(0, 213, 0)" fill-opacity="1.0" /><path d="M 252,197 L 252,151 Z" fill="rgb(0, 214, 0)" fill-opacity="1.0" /><path d="M 253,151 L 254,151 L 254,195 L 253,196 Z" fill="rgb(0, 215, 0)" fill-opacity="1.0" /><path d="M 255,194 L 255,151 Z" fill="rgb(0, 216, 0)" fill-opacity="1.0" /><path d="M 256,193 L 256,151 Z" fill="rgb(0, 217, 0)" fill-opacity="1.0" /><path d="M 257,192 L 257,151 Z" fill="rgb(0, 218, 0)" fill-opacity="1.0" /><path d="M 258,191 L 258,151 Z" fill="rgb(0, 219, 0)" fill-opacity="1.0" /><path d="M 259,190 L 259,151 Z" fill="rgb(0, 220, 0)" fill-opacity="1.0" /><path d="M 260,151 L 261,151 L 261,188 L 260,189 Z" fill="rgb(0, 221, 0)" fill-opacity="1.0" /><path d="M 262,187 L 262,151 Z" fill="rgb(0, 222, 0)" fill-opacity="1.0" /><path d="M 263,186 L 263,151 Z" fill="rgb(0, 223, 0)" fill-opacity="1.0" /><path d="M 264,185 L 264,151 Z" fill="rgb(0, 224, 0)" fill-opacity="1.0" /><path d="M 265,184 L 265,151 Z" fill="rgb(0, 225, 0)" fill-opacity="1.0" /><path d="M 266,151 L 267,151 L 267,182 L 266,183 Z" fill="rgb(0, 226, 0)" fill-opacity="1.0" /><path d="M 268,181 L 268,151 Z" fill="rgb(0, 227, 0)" fill-opacity="1.0" /><path d="M 269,180 L 269,151 Z" fill="rgb(0, 228, 0)" fill-opacity="1.0" /><path d="M 270,179 L 270,151 Z" fill="rgb(0, 229, 0)" fill-opacity="1.0" /><path d="M 271,178 L 271,151 Z" fill="rgb(0, 230, 0)" fill-opacity="1.0" /><path d="M 272,177 L 272,151 Z" fill="rgb(0, 231, 0)" fill-opacity="1.0" /><path d="M 273,151 L 274,151 L 274,175 L 273,176 Z" fill="rgb(0, 232, 0)" fill-opacity="1.0" /><path d="M 275,174 L 275,151 Z" fill="rgb(0, 233, 0)" fill-opacity="1.0" /><path d="M 276,173 L 276,151 Z" fill="rgb(0, 234, 0)" fill-opacity="1.0" /><path d="M 277,172 L 277,151 Z" fill="rgb(0, 235, 0)" fill-opacity="1.0" /><path d="M 278,171 L 278,151 Z" fill="rgb(0, 236, 0)" fill-opacity="1.0" /><path d="M 279,170 L 279,151 Z" fill="rgb(0, 237, 0)" fill-opacity="1.0" /><path d="M 280,151 L 281,151 L 281,168 L 280,169 Z" fill="rgb(0, 238, 0)" fill-opacity="1.0" /><path d="M 282,167 L 282,151 Z" fill="rgb(0, 239, 0)" fill-opacity="1.0" /><path d="M 283,166 L 283,151 Z" fill="rgb(0, 240, 0)" fill-opacity="1.0" /><path d="M 284,165 L 284,151 Z" fill="rgb(0, 241, 0)" fill-opacity="1.0" /><path d="M 285,164 L 285,151 Z" fill="rgb(0, 242, 0)" fill-opacity="1.0" /><path d="M 286,151 L 287,151 L 287,162 L 286,163 Z" fill="rgb(0, 243, 0)" fill-opacity="1.0" /><path d="M 288,161 L 288,151 Z" fill="rgb(0, 244, 0)" fill-opacity="1.0" /><path d="M 289,160 L 289,151 Z" fill="rgb(0, 245, 0)" fill-opacity="1.0" /><path d="M 290,159 L 290,151 Z" fill="rgb(0, 246, 0)" fill-opacity="1.0" /><path d="M 291,158 L 291,151 Z" fill="rgb(0, 247, 0)" fill-opacity="1.0" /><path d="M 292,157 L 292,151 Z" fill="rgb(0, 248, 0)" fill-opacity="1.0" /><path d="M 293,151 L 294,151 L 294,155 L 293,156 Z" fill="rgb(0, 249, 0)" fill-opacity="1.0" /><path d="M 295,154 L 295,151 Z" fill="rgb(0, 250, 0)" fill-opacity="1.0" /><path d="M 296,153 L 296,151 Z" fill="rgb(0, 251, 0)" fill-opacity="1.0" /></svg>